<?xml version="1.0" encoding="UTF-8" standalone="no"?>
<!DOCTYPE svg PUBLIC "-//W3C//DTD SVG 1.1//EN" "http://www.w3.org/Graphics/SVG/1.1/DTD/svg11.dtd">
<svg width="100%" height="100%" viewBox="0 0 251 251" version="1.1" xmlns="http://www.w3.org/2000/svg" xmlns:xlink="http://www.w3.org/1999/xlink" xml:space="preserve" xmlns:serif="http://www.serif.com/" style="fill-rule:evenodd;clip-rule:evenodd;stroke-linejoin:round;stroke-miterlimit:1.41421;">
    <g id="Layer-1" serif:id="Layer 1">
        <g transform="matrix(1,0,0,1,250.857,125.434)">
            <path d="M0,-0.008C0,69.269 -56.156,125.426 -125.428,125.426C-194.701,125.426 -250.857,69.269 -250.857,-0.008C-250.857,-69.279 -194.701,-125.434 -125.428,-125.434C-56.156,-125.434 0,-69.279 0,-0.008" style="fill:rgb(44,34,46);fill-rule:nonzero;"/>
        </g>
        <g transform="matrix(1,0,0,1,152.465,64.383)">
            <path d="M0,-0.001C0,14.93 -12.107,27.035 -27.034,27.035C-41.965,27.035 -54.072,14.93 -54.072,-0.001C-54.072,-14.931 -41.965,-27.036 -27.034,-27.036C-12.107,-27.036 0,-14.931 0,-0.001" style="fill:rgb(185,88,53);fill-rule:nonzero;"/>
        </g>
        <g transform="matrix(1,0,0,1,152.465,124.445)">
            <path d="M0,0.003C0,14.932 -12.107,27.037 -27.034,27.037C-41.965,27.037 -54.072,14.932 -54.072,0.003C-54.072,-14.929 -41.965,-27.034 -27.034,-27.034C-12.107,-27.034 0,-14.929 0,0.003" style="fill:rgb(185,88,53);fill-rule:nonzero;"/>
        </g>
        <g transform="matrix(1,0,0,1,85.54,64.383)">
            <path d="M0,-0.001C0,13.573 -11.004,24.577 -24.576,24.577C-38.15,24.577 -49.155,13.573 -49.155,-0.001C-49.155,-13.574 -38.15,-24.578 -24.576,-24.578C-11.004,-24.578 0,-13.574 0,-0.001" style="fill:rgb(140,13,55);fill-rule:nonzero;"/>
        </g>
        <g transform="matrix(1,0,0,1,214.474,64.383)">
            <path d="M0,-0.001C0,13.573 -11.005,24.577 -24.577,24.577C-38.152,24.577 -49.157,13.573 -49.157,-0.001C-49.157,-13.574 -38.152,-24.578 -24.577,-24.578C-11.005,-24.578 0,-13.574 0,-0.001" style="fill:rgb(140,13,55);fill-rule:nonzero;"/>
        </g>
        <g transform="matrix(1,0,0,1,103.596,186.478)">
            <path d="M0,0.001C0,13.573 -11.006,24.578 -24.577,24.578C-38.151,24.578 -49.155,13.573 -49.155,0.001C-49.155,-13.572 -38.151,-24.577 -24.577,-24.577C-11.006,-24.577 0,-13.572 0,0.001" style="fill:rgb(140,13,55);fill-rule:nonzero;"/>
        </g>
        <g transform="matrix(1,0,0,1,90.4912,124.445)">
            <path d="M0,0.003C0,13.574 -11.005,24.579 -24.577,24.579C-38.152,24.579 -49.156,13.574 -49.156,0.003C-49.156,-13.571 -38.152,-24.576 -24.577,-24.576C-11.005,-24.576 0,-13.571 0,0.003" style="fill:rgb(140,13,55);fill-rule:nonzero;"/>
        </g>
        <g transform="matrix(1,0,0,1,210.268,124.445)">
            <path d="M0,0.003C0,13.574 -11.005,24.579 -24.574,24.579C-38.152,24.579 -49.156,13.574 -49.156,0.003C-49.156,-13.571 -38.152,-24.576 -24.574,-24.576C-11.005,-24.576 0,-13.571 0,0.003" style="fill:rgb(140,13,55);fill-rule:nonzero;"/>
        </g>
        <g transform="matrix(1,0,0,1,195.979,186.478)">
            <path d="M0,0.001C0,13.573 -11.004,24.578 -24.578,24.578C-38.15,24.578 -49.152,13.573 -49.152,0.001C-49.152,-13.572 -38.15,-24.577 -24.578,-24.577C-11.004,-24.577 0,-13.572 0,0.001" style="fill:rgb(140,13,55);fill-rule:nonzero;"/>
        </g>
    </g>
</svg>
